#!OML:ASF F:\VICON\USERDATA\INSTALL\rory3\rory3.ASF
:FULLY-SPECIFIED
:DEGREES
104
root -0.25407186486631067 17.45709403282672 56.74191273885663 1.5114376109444159 0.8689840102884328 -2.557250422023373
lfemur -29.243449061102837 -4.355009119325561 -15.28242231554496
ltibia 31.411408292560687
lfoot -3.6924686501924056 0.43787624539411407
ltoes -6.415022075799549
rfemur -1.6334283108471084 3.1893096093569975 31.08884076616755
rtibia 60.37302609357632
rfoot -16.266936485760755 -13.671374695422255
rtoes -13.338546933215714
lowerback 11.667968975261186 0.4560240639020703 2.654149440765332
upperback -0.1576216286093323 1.1512497408680358 1.805229311920919
thorax -6.386855016902046 0.48954173132212275 -1.0105576236788463
lowerneck -17.136674504388896 -3.3672924306771517 -2.9745011611163923
upperneck 19.13169661228889 -3.9669071923614743 2.9982182426503794
head 8.783218248709733 -1.8528745676015217 1.228085959328536
lclavicle -1.6740625243377443e-15 -3.59109446373744e-15
lhumerus -48.600401122459104 0.22494847393763706 88.18300113794287
lradius 56.56059836814193
lwrist 15.409021803870386
lhand -28.06543399984601 12.247946140202938
lfingers 7.125019999999999
lthumb -1.8406103801371745 41.865011514278784
rclavicle -1.6743197917520707e-15 -3.5912554690330466e-15
rhumerus -33.761046965419354 -2.7621723034554324 -88.38061152686929
rradius 67.40307393383614
rwrist -2.795352293136231
rhand -18.318167153258262 29.995158457151167
rfingers 7.125019999999999
rthumb 7.530994896383733 1.1838673950273424
105
root -0.21361687290630915 17.514535089123875 57.04539109689898 1.4627705030242932 1.4311438776237946 -1.943974496958891
lfemur -27.48762684964677 -4.248964940735803 -16.755013435651698
ltibia 26.90754895175308
lfoot -2.4925562056955997 -1.7480820090971747
ltoes -7.911953264359382
rfemur -2.5578672936056837 1.8524154583120531 29.700078014547678
rtibia 65.44862851358876
rfoot -11.987202882313728 -12.413221527127074
rtoes -14.298205449954583
lowerback 11.289488264726495 0.30957555643079215 2.3666354265829055
upperback -0.42747367235071415 0.889518117879235 1.5633020297151123
thorax -6.436796850256525 0.35330169719633986 -0.8644845028469688
lowerneck -16.984792048290743 -3.3307746971429975 -2.971781646091088
upperneck 19.141150961994523 -3.932932467188323 2.9764007419632947
head 8.749072848561465 -1.8488409872190308 1.2289088181965653
lclavicle -1.6747579033408494e-15 -3.591585794367807e-15
lhumerus -48.5621270190515 0.5744679387579321 87.7010493598917
lradius 55.922497518218385
lwrist 14.726703198060315
lhand -27.410199936410596 12.613989851018136
lfingers 7.125019999999999
lthumb -1.302750074319717 42.1795893295894
rclavicle -1.6755375823741972e-15 -3.592116641338955e-15
rhumerus -34.152922316085466 -3.0809839955934484 -88.50327370032868
rradius 66.33040803352921
rwrist -1.2754068359748567
rhand -18.07877647975812 29.80977450622618
rfingers 7.125019999999999
rthumb 7.674350858868357 1.0682497082692999
106
root -0.16254952538041248 17.558841250922715 57.50306142798329 1.452203016920027 1.6168397864085478 -1.3532432702237334
lfemur -25.210963280845597 -3.9646368807059593 -18.08890525943208
ltibia 24.85866168281192
lfoot -2.2262667798961666 -3.657509104589488
ltoes -8.306669570832227
rfemur -5.407768937621697 0.7578272580533811 28.10166496842398
rtibia 70.92637449441763
rfoot -6.436114630559831 -10.9288989825184
rtoes -13.116285120601528
lowerback 10.99931559952938 0.25205010873216027 1.9764708690114288
upperback -0.7851618268629283 0.7433349474238038 1.3282131429720088
thorax -6.520398242612655 0.28431913098171097 -0.6433246440750098
lowerneck -16.81931056090173 -3.2758135766405196 -2.9957291839652904
upperneck 19.161083975527045 -3.8683805338477404 2.927235870739657
head 8.742125396772074 -1.8336964600074548 1.2238087572183307
lclavicle -1.6753908322969936e-15 -3.592031519331231e-15
lhumerus -48.19704015383118 0.5580840992995544 87.38356467065749
lradius 55.823841887621
lwrist 13.74389568986893
lhand -27.00506061213678 12.662333163598575
lfingers 7.125019999999999
lthumb -0.9181130941044384 42.331594087488774
rclavicle -1.6769602200251328e-15 -3.593122631088384e-15
rhumerus -34.79415670067728 -3.435956304645085 -88.4679706720931
rradius 65.30384340833554
rwrist 0.1045904856155575
rhand -17.84902372886667 29.544442067419592
rfingers 7.125019999999999
rthumb 7.744999446385084 0.7676643661591862
107
root -0.11774439490546834 17.611145182072846 57.85351307994532 1.2486778360943802 1.9158210697497828 -0.8865135608439811
lfemur -22.348927991093834 -4.0028846296984515 -19.254138872988772
ltibia 23.686962241338282
lfoot -2.763657690155598 -4.700871760626288
ltoes -9.337925120924247
rfemur -9.238486812864572 -0.10825179319085754 26.640397183902852
rtibia 75.76830284020991
rfoot -1.8757987365892437 -10.102289202056232
rtoes -9.494849343332202
lowerback 10.970571039575876 0.13627225280337643 1.6144745262635336
upperback -1.0654258744338598 0.518680055244637 1.1523419254386968
thorax -6.670208002517192 0.16646685912321832 -0.35333953945236396
lowerneck -16.661043104995677 -3.2162761549285697 -3.0170785939253117
upperneck 19.165647223255636 -3.7725957684501856 2.844528378152413
head 8.741997431444997 -1.7991709292342006 1.2100646779458162
lclavicle -1.6748081890329593e-15 -3.591617299698145e-15
lhumerus -47.53127829967146 0.27553285716545517 87.1694678932268
lradius 56.11695565198248
lwrist 13.16349024055357
lhand -26.966634874803756 12.900395677456663
lfingers 7.125019999999999
lthumb -0.8307741967916402 42.64419407980722
rclavicle -1.6786206383861438e-15 -3.594296710526987e-15
rhumerus -35.437377663012136 -3.8783689625172477 -88.37494038182243
rradius 63.987679234428285
rwrist 1.3724331762605564
rhand -17.580679105107553 29.16444056846843
rfingers 7.125019999999999
rthumb 7.893845468754188 0.4005676560342363
108
root -0.07514438932748929 17.658023960562673 58.37373327682873 1.1109213416927624 2.172333451397849 -0.43838891324960505
lfemur -19.380361113020705 -4.1487905597951436 -20.26748817263394
ltibia 22.674156666014277
lfoot -3.648773026569967 -5.1499837760406955
ltoes -10.059475813069467
rfemur -13.270456160425946 -0.6404863673038217 25.368583549814257
rtibia 79.04977525672068
rfoot 0.5158461372125283 -10.20939050449206
rtoes -4.569542746011241
lowerback 10.917734769207552 0.008595955776327158 1.186912813145394
upperback -1.3060515297303978 0.27215537784579025 1.041637288975914
thorax -6.669398765422273 0.04607031485149882 0.009223853673904325
lowerneck -16.54506168568988 -3.160678063125468 -3.0951342148403707
upperneck 19.15406870329782 -3.685126351520145 2.7994709399506252
head 8.751301735446654 -1.7586640372234714 1.2166623173976276
lclavicle -1.675406507792497e-15 -3.5920397830439436e-15
lhumerus -46.61032422506216 -0.2330280149773003 87.05079561287044
lradius 56.82423939653002
lwrist 13.480931261937087
lhand -27.084753322411764 12.956039456305824
lfingers 7.125019999999999
lthumb -0.921827458372241 42.69350798098851
rclavicle -1.679341523882979e-15 -3.594806455996557e-15
rhumerus -36.049183243745 -4.378146723569183 -88.10562667686048
rradius 62.53731596502287
rwrist 2.6842863805587127
rhand -17.3238050818251 28.963080133531047
rfingers 7.125019999999999
rthumb 7.950224173186188 0.07348578632530356
109
root -0.04729650885075957 17.70862010176275 58.89922224717925 1.0130683615487057 2.2716791625115373 -0.24614982828800658
lfemur -16.579228374504893 -4.225133721286153 -20.964546572759915
ltibia 21.990382426802668
lfoot -3.921098019025437 -5.437347724748797
ltoes -9.593402225868866
rfemur -16.931057663513783 -0.7108502345979444 24.558805958214556
rtibia 80.11080270976919
rfoot 1.075413197962297 -10.696105179187274
rtoes -0.2893590048710548
lowerback 10.968522779787401 -0.09060639347516736 0.8686206654341022
upperback -1.5188376379209216 0.09282073906093646 1.0457407864958794
thorax -6.678450628397835 -0.029522103327533633 0.3723620773793151
lowerneck -16.490755765303735 -3.0863003147187307 -3.145557409699732
upperneck 19.21569334553805 -3.5626664770332312 2.6568312802645266
head 8.777415118087614 -1.7064339052286175 1.1871076989035323
lclavicle -1.6744906491781637e-15 -3.591390179951151e-15
lhumerus -45.49537536769047 -0.9503909943110336 87.05728012275767
lradius 57.784673346896156
lwrist 13.076457594744493
lhand -27.068124962222097 12.962897163455127
lfingers 7.125019999999999
lthumb -0.8500364876582189 42.726296416852016
rclavicle -1.680011048718021e-15 -3.59527988605339e-15
rhumerus -36.72450249072169 -4.9378422176856445 -87.74922287805082
rradius 61.307675687471125
rwrist 3.599968286639334
rhand -17.171102934168562 28.81061259848145
rfingers 7.125019999999999
rthumb 8.014351414158478 -0.13552741850796285
